<svg xmlns="http://www.w3.org/2000/svg" xmlns:xlink="http://www.w3.org/1999/xlink" width="150" height="49" viewBox="0 0 150 49">
    <defs>
        <path id="a" d="M.172.108H19.05v20.153H.17z"/>
        <path id="c" d="M0 .228h24.78v21.116H0z"/>
        <path id="e" d="M.09.225h23.007v21.813H.09z"/>
    </defs>
    <g fill="none" fill-rule="evenodd">
        <g transform="translate(122.69 .145)">
            <mask id="b" fill="#fff">
                <use xlink:href="#a"/>
            </mask>
            <path fill="#FFF" d="M8.84 6.303c1.004-2.057 1.959-4.138 2.987-6.195.27 2.106.563 4.187.857 6.293 2.033-.685 4.016-1.493 6.073-2.081-1.445 1.763-2.84 3.575-4.236 5.387 1.518 1.2 3.036 2.35 4.53 3.55-2.033.22-4.065.319-6.097.49-.074 2.155-.221 4.334-.343 6.514-1.176-1.567-2.253-3.184-3.38-4.775-1.69 1.543-3.403 3.085-5.044 4.677a669.064 669.064 0 0 0 1.886-6.612 486.633 486.633 0 0 1-5.901-.783c1.91-1.078 3.844-2.18 5.754-3.281C5.142 7.6 4.334 5.74 3.576 3.855 5.313 4.712 7.1 5.446 8.84 6.303" mask="url(#b)"/>
        </g>
        <path fill="#EC1C25" d="M112.651 34.804c5.167-4.407 9.82-9.403 14.203-14.57-1.984 6.833-5.828 13.126-11.02 17.974-1.224.98-2.35 2.13-3.722 2.963-4.48 3.036-9.77 4.995-15.206 5.044l.123-.098c4.285-2.497 8.399-5.264 12.243-8.399 1.126-.955 2.326-1.86 3.38-2.914"/>
        <path stroke="#EC1C25" stroke-width=".5" d="M112.651 34.804c5.167-4.407 9.82-9.403 14.203-14.57-1.984 6.833-5.828 13.126-11.02 17.974-1.224.98-2.35 2.13-3.722 2.963-4.48 3.036-9.77 4.995-15.206 5.044l.123-.098c4.285-2.497 8.399-5.264 12.243-8.399 1.126-.955 2.326-1.86 3.38-2.914z"/>
        <g transform="translate(.746 26.836)">
            <mask id="d" fill="#fff">
                <use xlink:href="#c"/>
            </mask>
            <path fill="#FFF" d="M10.162 1.063c2.253-.612 4.604-.857 6.93-.832 2.57-.025 5.167.146 7.689.587-.368.98-.735 1.935-1.053 2.914-3.649-.27-7.42-.514-11.044.318-1.102.294-2.522.735-2.816 2.033-.049.98.857 1.543 1.69 1.787 2.595.71 5.387.613 7.836 1.764 1.15.514 2.13 1.518 2.326 2.791.318 1.983-.245 4.163-1.64 5.656-1.592 1.715-3.943 2.474-6.172 2.89-4.628.735-9.402.343-13.908-.808.245-1.029.539-2.057.784-3.085 3.893.49 7.884 1.101 11.778.293 1.469-.318 3.134-1.102 3.403-2.742.294-1.078-.66-1.935-1.591-2.204-2.473-.76-5.118-.588-7.542-1.494C5.779 10.54 4.75 9.83 4.359 8.752c-.735-1.886-.05-4.114 1.42-5.436 1.273-1.102 2.791-1.812 4.383-2.253" mask="url(#d)"/>
        </g>
        <path fill="#FFF" d="M101.705 27.067c1.592 0 3.208.024 4.8 0a98.595 98.595 0 0 0 6.269 7.615l-.123.122c-1.053 1.053-2.253 1.96-3.38 2.914a104.766 104.766 0 0 1-7.566-10.651M69.97 37.988c-.293 1.64-.905 3.33-2.179 4.456-1.567 1.445-3.844 1.763-5.877 1.518-1.42-.122-2.938-.808-3.6-2.154-.807-1.543-.538-3.38-.122-4.996.564-2.277 1.984-4.407 4.114-5.485 2.84-1.469 6.146-1.444 9.256-1.102-.563 2.596-1.053 5.192-1.591 7.763m3.99-19.32c-.513 2.669-1.052 5.362-1.566 8.056-4.212-.123-8.644-.417-12.586 1.371-3.306 1.371-5.975 4.26-6.906 7.738-.881 2.84-.783 6.195 1.102 8.62 1.837 2.301 4.824 3.256 7.665 3.403 3.207.147 6.66-.343 9.28-2.326 2.473-1.812 3.844-4.8 4.432-7.738A4583.883 4583.883 0 0 0 79.08 18.3c-1.69.123-3.404.22-5.118.368"/>
        <g transform="translate(77.635 26.591)">
            <mask id="f" fill="#fff">
                <use xlink:href="#e"/>
            </mask>
            <path fill="#FFF" d="M15.598 8.801c-3.036 1.004-6.317.76-9.403.245C7.077 7.013 8.62 5.2 10.652 4.27c1.738-.784 3.77-1.102 5.656-.612.882.22 1.69.955 1.739 1.934.22 1.543-1.127 2.743-2.449 3.208m5.975-6.734C19.883.622 17.533.28 15.378.231 11.288.133 7.003 1.332 4.016 4.22 1.666 6.378.269 9.488.122 12.67c-.171 1.983.343 4.04 1.617 5.583 1.542 2.032 4.04 3.159 6.513 3.55 3.771.637 7.836 0 11.02-2.179l.122-.098c-3.673.392-7.665.49-11.02-1.298-2.13-1.175-3.158-3.697-2.913-6.048 4.236.76 8.741.93 12.83-.612 1.715-.686 3.404-1.788 4.261-3.477.93-1.935.71-4.555-.98-6.024" mask="url(#f)"/>
        </g>
        <path fill="#FFF" d="M44.553 36.078c-.22 1.812-.882 3.624-2.032 5.068-1.592 2.057-4.212 3.306-6.808 3.208-1.42 0-2.938-.343-3.942-1.396-.71-.734-1.053-1.738-1.102-2.742-.171-4.212 2.62-8.62 6.88-9.599 1.862-.44 4.017-.27 5.535.98 1.249 1.101 1.665 2.889 1.47 4.48m5.582-2.473c-.294-2.179-1.665-4.138-3.55-5.215-2.547-1.494-5.657-1.714-8.522-1.42-3.869.391-7.664 2.179-10.162 5.215-2.008 2.473-3.11 5.73-2.791 8.913.22 2.253 1.591 4.31 3.526 5.437 2.497 1.493 5.51 1.714 8.325 1.493 4.285-.367 8.546-2.473 11.02-6.073 1.64-2.4 2.546-5.436 2.154-8.35M138.73 43.889c-1.935.784-4.188.906-6.147.122-1.346-.514-2.301-1.86-2.424-3.305-.392-4.432 2.547-9.158 7.028-10.138 1.763-.392 3.795-.294 5.29.808 1.175.857 1.762 2.302 1.787 3.722.049 3.649-2.081 7.395-5.534 8.791m11.117-10.554c-.392-2.375-2.106-4.432-4.286-5.411-2.742-1.298-5.876-1.372-8.815-.955-4.31.636-8.423 3.11-10.627 6.93-1.371 2.424-2.081 5.313-1.518 8.08.44 2.253 2.081 4.163 4.163 5.142 2.693 1.274 5.778 1.42 8.692 1.029 4.139-.588 8.179-2.816 10.456-6.367 1.592-2.473 2.449-5.534 1.935-8.448M112.112 41.171c1.372-.833 2.498-1.983 3.722-2.963 3.012 3.306 6.073 6.563 9.134 9.82-2.13-.05-4.285.024-6.415-.025-.564-.343-.931-.857-1.396-1.298-1.763-1.788-3.477-3.6-5.045-5.534"/>
    </g>
</svg>
