<svg xmlns="http://www.w3.org/2000/svg" width="136" height="44" viewBox="0 0 136 44">
    <g fill="none" fill-rule="evenodd">
        <path fill="#27337C" d="M71.487 16.296l-4.612.298-1.458 7.48c-1.763-.06-2.319-.119-4.392-.119-6.49 0-12.155 2.753-13.65 9.208-1.35 5.82 1.928 10.337 9.076 10.337 7.321 0 10.508-3.852 11.652-9.27l3.384-17.934zm-6.831 10.926l-1.518 7.641c-.667 3.1-2.518 5.166-6.296 5.166-4.34 0-5.483-2.713-4.532-6.531 1.348-5.419 5.728-7.032 12.346-6.276zM21.71 28.103c-6.78-.588-12.613-.052-12.709 2.143-.146 3.298 11.177.421 10.959 6.487-.318 8.91-16.063 6.86-19.96 5.726l.708-2.644c6.717 1.017 13.803 1.1 13.96-2.433.166-3.755-11.205-.38-10.938-6.462.2-4.528 7.305-6.972 18.937-5.342l-.956 2.525M35.32 24.194c-6.623 0-11.947 3.877-13.256 9.651-1.312 5.778 2.253 9.655 8.874 9.655 6.62 0 11.945-3.877 13.254-9.655 1.312-5.774-2.252-9.651-8.873-9.651zm3.85 9.651c-.96 3.877-3.998 6.311-7.614 6.311-3.782 0-5.485-2.22-4.47-6.31.962-3.877 4.035-6.479 7.651-6.479 3.613 0 5.396 2.602 4.433 6.478zM112.462 43.5h-5.78c-3.504-3.216-10.209-10.608-15.144-18.429h4.241c4.687 6.313 16.683 18.429 16.683 18.429M118.318 5.886L120.921.5l.741 5.476 5.307-1.844-3.708 4.72 4.021 3.093-5.368.412-.296 5.694-2.983-4.207-4.387 4.014 1.644-5.658-5.174-.696 5.036-2.847-2.066-4.874 4.63 2.103M126.506 24.194c-6.876 0-12.404 3.879-13.765 9.653-1.361 5.777 2.34 9.653 9.215 9.653s12.404-3.876 13.764-9.653c1.363-5.774-2.34-9.653-9.214-9.653zm3.999 9.653c-.999 3.875-4.152 6.31-7.907 6.31-3.926 0-5.695-2.219-4.641-6.31.998-3.875 4.189-6.477 7.942-6.477 3.756 0 5.605 2.602 4.606 6.477z"/>
        <path fill="#D8232A" d="M88.051 41.745c10.877-6.13 20.324-15.55 27.026-23.694-4.818 15.3-16.415 23.534-27.026 23.694"/>
        <path fill="#27337C" d="M90.667 28.946c0-2.74-2.24-4.752-7.323-4.752-8.243 0-13.6 5.215-13.6 11.672 0 4.17 3.55 7.634 10.039 7.634 4.47 0 7.454-2.147 7.454-2.147-5.689.594-12.674 0-12.674-5.93 0-.237.013-.472.032-.707 7.762 1.57 16.072-.33 16.072-5.77zm-7.782-1.961c2.106 0 3.253.744 3.253 2.168 0 3.777-7.557 3.528-10.89 2.865 1.173-2.826 3.819-5.033 7.637-5.033z"/>
    </g>
</svg>
